# xmcd
#
# Track frame offsets: 
#        150
#        18414
#        34621
#        57437
#        76520
#        89328
#        103893
#        125897
#        148615
#        164717
#        179747
#        197791
#
# Disc length: 2880 seconds
#
# Revision: 1
# Processed by: cddbd v1.5.2PL0 Copyright (c) Steve Scherf et al.
# Submitted via: ExactAudioCopy v1.0b2
#
DISCID=ab0b3e0c
DTITLE=Toronto Cannon and The Cannonball Express - My Woman
DYEAR=2006
DGENRE=Blues
TTITLE0=My Woman
TTITLE1=She's Gone
TTITLE2=Toronto Shuffle
TTITLE3=Earnestine
TTITLE4=Cannonball (Just Messin' Around)
TTITLE5=Best Love I Never Had
TTITLE6=Ain't No Stranger (Revisited)
TTITLE7=No Good Man
TTITLE8=Don't Change Me
TTITLE9=Back To The Weekend
TTITLE10=Not Born To Lose
TTITLE11=Young A Little While (But Old A Long Time)
EXTD=
EXTT0=
EXTT1=
EXTT2=
EXTT3=
EXTT4=
EXTT5=
EXTT6=
EXTT7=
EXTT8=
EXTT9=
EXTT10=
EXTT11=
PLAYORDER=
